<svg id="Layer_1" data-name="Layer 1" xmlns="http://www.w3.org/2000/svg" viewBox="0 0 896.78 967.9"><defs><style>.cls-1{fill:#050706;}</style></defs><path class="cls-1" d="M426,609.5c.4-8.2.5-65.1.1-126.2l-.6-111.3h51.7c41.8,0,51.6-.2,51.6-1.3a43.64,43.64,0,0,0-2.1-7.5l-2.1-6.2h-62.4c-34.3,0-62.4.3-62.4.8s1.4,6.3,3,13l3,12.3V598.9l-3,11.7c-1.7,6.5-2.8,12.4-2.6,13.1.4,1.1,3.3,1.3,12.8,1.1l12.3-.3Z"/><path class="cls-1" d="M240.37,428.3c29.6-30.2,57.6-58.5,62.3-63l8.6-8.3H277l-1,2.8c-.6,1.5-2,5.6-3.2,9.2-2,6.5-2.2,6.7-33.3,37.8L208.27,438l.3-28.8c.3-26.6.5-29.4,2.8-38.7,1.3-5.5,2.6-10.8,2.8-11.7.4-1.7-.8-1.8-14.5-1.8h-14.9v63c0,34.7.4,63,.9,63S210.77,458.4,240.37,428.3Z"/><path class="cls-1" d="M491.07,791.5c-1-1.7-8.9-22.2-10.6-27.6-.4-1.1,2-4.1,6.9-9l7.4-7.3V722.8l-7.7-7.9-7.6-7.9h-58l.9,4.3c1.1,5.4,1.1,82.8,0,88.5l-.9,4.2h13.2c12.1,0,13.2-.1,12.7-1.7-2.1-7.2-2.7-12.4-2.4-23.3l.3-12.5,5.5-.3c3.4-.2,6.1.2,7.1,1s4.2,9.3,7.3,19.1l5.7,17.7H498l-2.9-5.2C493.47,795.9,491.67,792.6,491.07,791.5Zm-24.3-44c-3.8,2-20.8,2.1-21.6.2a125.93,125.93,0,0,1-.2-12.8l.3-11.4,8.2-.3c9.6-.3,15.2,1.8,17.8,6.8C474.47,736.2,472.37,744.6,466.77,747.5Z"/><path class="cls-1" d="M429.77,466v78.8c0,43.4.3,79.2.7,79.5s7.1.7,15,.7c13.1,0,14.3-.1,14.3-1.8,0-1-1.6-8.2-3.5-16.1l-3.5-14.2V538.6c0-40.8.3-54.5,1.2-55.4s5.5-1.2,14.7-1.2c12.7,0,14.3.2,24.6,3.5,6.1,1.9,11.3,3.5,11.8,3.5s.7-5.2.7-11.5V466h-76Z"/><path class="cls-1" d="M326.37,357h-9.1L285,389.3c-24.1,24.2-32.2,32.9-32.2,34.6,0,2.2,13,44.8,15.1,49.6,1,2.2,4.8,13.3,8.1,23.5,1.2,3.6,4.6,14.2,7.6,23.5s5.8,17.7,6.3,18.7,2.7,7.4,4.9,14.5,4.7,14.7,5.6,17.1L302,575h15.4c8.5,0,15.4-.4,15.4-.8s-3.7-7.1-8.3-14.8a143.73,143.73,0,0,1-13.4-28.4c-9.4-26.4-17.3-48.3-25.3-69.5-4.3-11.5-9-24.4-10.4-28.5l-2.6-7.5,32.6-32.7C342.67,355.3,341.77,357,326.37,357Z"/><path class="cls-1" d="M421.47,263h12.6c6.9,0,12.8-.3,13-.7s-.2-3.2-.9-6.2c-1-3.7-1.4-9.6-1.2-18l.3-12.6,4.9-.3c7.1-.5,9.3.3,10,3.5,1.5,6.1,9.9,31.9,10.9,33.1.7.8,4.7,1.2,13.8,1.2,7.1,0,12.9-.3,12.9-.6a56.94,56.94,0,0,0-3.6-6.7c-3.1-5.2-8.2-17.3-13.1-31.1l-1.4-4,7.5-7.2,7.6-7.2V181.5l-8.2-8.2-8.3-8.3h-56.8l.9,4.3c1.1,5.6,1.1,82.9,0,89Zm23.9-80.4c1-2.5,14.8-2.2,19.8.4,9.7,4.9,10.2,18.9.8,23.4-3.3,1.6-19.1,2.3-20.5.9C444.57,206.5,444.57,184.7,445.37,182.6Z"/><path class="cls-1" d="M283.27,532.5c-2.6-8.6-8.8-27.3-10.2-30.5a24.7,24.7,0,0,1-1-3.5,6.52,6.52,0,0,0-1.3-2.9,2.37,2.37,0,0,1-.3-2.2c.3-.8.1-1.4-.5-1.4s-1.2-1.5-1.5-3.2-2.8-10.3-5.7-18.8-5.6-17.1-6.2-19c-2.4-7.8-8.2-23-8.9-23-1.1,0-61.3,60.9-62.1,62.8-.9,2.2-1,82.6-.1,83.5s28.1.9,28.6,0c.3-.5-.8-5.7-2.4-11.8-2.8-10.9-2.8-11.3-2.9-42.3,0-26.7.2-31.7,1.6-34.4,2.5-4.8,21.3-22.8,23.8-22.8,2,0,3.5,3.8,16.4,42.8,13.6,41.1,14.1,43.2,15.4,55.7l1.3,13,14.8.3c8.1.1,14.7,0,14.7-.4,0-1-9.2-29.7-10-31.3A88.91,88.91,0,0,1,283.27,532.5Z"/><path class="cls-1" d="M155.77,358.3c0,.6,1.2,5.7,2.7,11.2l2.7,10V466l.1,86.5-2.7,9.5c-4.1,14.2-4.9,13.1,9.5,12.8l12.2-.3.3-108.7.2-108.8h-12.5C159,357,155.77,357.3,155.77,358.3Z"/><path class="cls-1" d="M736.57,386.5l-2.3-7-37.2-.3-37.3-.2V575h14.5c10.9,0,14.5-.3,14.5-1.2,0-.7-2-7.1-4.5-14.2l-4.5-12.9v-73c0-66.6.1-73.2,1.7-74.9,1.4-1.6,3.3-1.8,15.4-1.8h13.8l16.1,5.6c8.9,3.1,16.4,5.3,16.7,5s-.6-3.6-2-7.3S737.87,390.4,736.57,386.5Z"/><path class="cls-1" d="M890.87,265c-14.8-44.1-54.7-88.9-96.6-108.5-3.3-1.5-8.2-3.9-11-5.2s-12.9-6-22.5-10.3-22-9.9-27.5-12.5-12.2-5.6-14.9-6.6-11-4.8-18.5-8.4-20.3-9.4-28.6-13-24-10.8-35-15.7c-46.3-20.9-61-27.5-79.5-35.8-18.8-8.4-31.4-14.1-84-37.9C459.27,5,447.57,0,446.57,0a5.07,5.07,0,0,0-3,1.3,21.76,21.76,0,0,1-5.3,2.9c-8.5,3.5-32.4,14.1-40,17.8-4.4,2.1-14.1,6.5-21.5,9.8s-24.1,10.8-37,16.7-29.6,13.4-37,16.7-19.6,8.8-27,12.3S259.47,85,256,86.4s-9.1,4.1-12.5,5.7-14.1,6.6-23.7,10.9-20.9,9.3-25,11.3-22.1,10.1-40,18.2c-69.9,31.6-80.1,37.7-103.7,61.7-29.5,30-46.3,62-50.3,95.6-.7,5.8-.9,71.9-.7,200.2.3,175,.5,192.1,2,198.9,7.2,32.1,23.8,60.5,51.1,87.6,17.8,17.7,35,29.2,61.1,40.9,7.2,3.3,16.4,7.5,20.5,9.4s14.9,6.8,24,10.9c28.5,12.9,54.7,24.8,79,35.8,12.9,5.9,31.4,14.2,41,18.5,16.8,7.5,32.7,14.7,82,37,12.4,5.6,29.9,13.5,39,17.4s18.5,8.3,21,9.6c7.4,3.9,26.4,11.8,28.3,11.9.9.1,8.4-2.9,16.5-6.5s21.2-9.5,29.2-13.1,19-8.6,24.5-11.3,15.2-7.1,21.5-9.8,22.5-10,36-16.2,30.4-13.8,37.5-17,17.1-7.7,22-10,14.4-6.6,21-9.5,16.1-7.2,21-9.5,14.4-6.6,21-9.5,15.8-7.1,20.5-9.3c8.7-4.1,30.6-14.1,57.9-26.3,42.4-19,69.1-40.7,92.6-75.4,7.6-11.1,18-32.2,21.3-43,5.4-17.7,5.2-9.3,5.2-216.9C896.77,273.9,897.07,283.5,890.87,265Zm-27.1,219.8V679.7l-2.5,9.8c-4.8,18.8-15.8,38.7-31.1,56-16.4,18.6-32.7,31.5-49.9,39.5-3.8,1.8-10.6,5-15,7.1s-14.1,6.5-21.5,9.8-24.5,10.9-38,17.1-30.6,13.9-38,17.2-16.9,7.5-21,9.5-14.9,6.8-24,10.8-18.3,8.2-20.5,9.3-10.1,4.7-17.5,8-16.9,7.6-21,9.5c-9.5,4.5-61,27.9-71,32.2-4.1,1.9-15.3,7-24.9,11.4s-18.1,8.1-19,8-10.4-4.1-21.1-9.1-26.7-12.1-35.5-16-16.4-7.4-17-7.8-8.2-3.9-17-7.8-19.8-8.8-24.5-11-14.6-6.7-22-10-23.2-10.3-35-15.7-30.3-13.6-41-18.5-23.5-10.7-28.5-13-12.8-5.7-17.4-7.6-12.4-5.5-17.5-7.9-17-7.8-26.6-12.1c-41.6-18.2-53.9-26-73.1-46.1s-31.8-41.6-37.5-64.2l-2.5-9.6V485c0-125,.4-195.3,1-198.5,2.5-12.4,5.6-21,12-33.1,8.8-16.8,18.6-29.4,34.6-44.5,14.7-13.8,27.4-22,49-31.4,7.2-3.2,16.6-7.4,21-9.5s15.5-7.1,24.5-11,17-7.6,17.5-8,8.2-3.9,17-7.8,19.9-8.9,24.6-11.1,15.1-6.9,23-10.4c13.6-6.1,32.3-14.6,79.9-36.2,11.3-5.1,28.2-12.7,37.5-17s18.4-8.3,20-9.2,8.6-4,15.5-7S428,42.1,435,38.8l12.7-6.1,8.3,4.1c4.6,2.2,11.7,5.5,15.8,7.2s15.6,7,25.5,11.5,31.7,14.4,48.5,22,33.9,15.3,38,17.2,13.4,6.1,20.5,9.3c30.5,13.6,56.3,25.2,61,27.5,2.8,1.3,10.9,5,18,8.1s17.3,7.7,22.5,10.1,14,6.4,19.5,8.8,14.8,6.6,20.7,9.4,14.5,6.6,19.3,8.6a164.48,164.48,0,0,1,32.9,17.5c12.4,8.3,29.8,25.1,39.3,37.7,7.4,9.9,16.7,26.2,20.4,35.8C864.07,283.6,863.77,271,863.77,484.8Z"/><path class="cls-1" d="M578.27,379l-4.4,13.8c-2.4,7.5-4.6,14.2-4.9,14.9s7.3-1.5,16.8-4.7l17.1-6h13.3c11.7,0,13.5.2,15,1.9s1.6,7.9,1.6,74.7v72.9l-4.5,13.5c-2.5,7.4-4.5,13.8-4.5,14.3s7.1.6,15.8.5l15.7-.3.3-97.7.2-97.8h-77.5Z"/><path class="cls-1" d="M530.57,376H429.77v42.3c0,23.3.3,42.7.7,43s17.3.6,37.7.5l37.1-.3.3-12.7c.1-7.1.1-12.8-.1-12.8s-5.7,1.8-12.2,4c-11.4,3.8-12.5,4-24.4,4-10.2,0-12.8-.3-14.3-1.7s-1.8-3.6-1.8-23.1c0-18.6.2-21.8,1.7-23.4s3.7-1.8,29-1.8h27.4l14,4.6c7.7,2.5,14.2,4.4,14.3,4.3.4-.4-4.1-14.7-7-22.6Z"/><path class="cls-1" d="M731.77,372.7a74.78,74.78,0,0,0-2.3-8.3l-2.4-6.9-70.6-.3-70.6-.2-2.6,8c-1.4,4.5-2.5,8.3-2.5,8.6s34,.4,75.5.4C717.67,374,731.77,373.8,731.77,372.7Z"/></svg>