<svg id="Layer_1" data-name="Layer 1" xmlns="http://www.w3.org/2000/svg" viewBox="0 0 896.77 967.9"><defs><style>.cls-1{fill:#050706;}.cls-2{fill:#0d0d0d;}.cls-3{fill:#fff;}</style></defs><path class="cls-1" d="M896.77,484.6c0-35.64,0-65,0-89.2V583C896.78,557.15,896.77,525,896.77,484.6Z" transform="translate(0 0)"/><polygon class="cls-1" points="449.07 967.9 449.07 967.9 449.07 967.9 449.07 967.9"/><path class="cls-2" d="M465.94,206.4c9.4-4.5,8.9-18.5-.8-23.4-5-2.6-18.8-2.9-19.8-.4-.8,2.1-.8,23.9.1,24.7C446.84,208.7,462.64,208,465.94,206.4Z" transform="translate(0 0)"/><path class="cls-2" d="M471.24,730c-2.6-5-8.2-7.1-17.8-6.8l-8.2.3-.3,11.4a127.09,127.09,0,0,0,.2,12.8c.8,1.9,17.8,1.8,21.6-.2C472.34,744.6,474.44,736.2,471.24,730Z" transform="translate(0 0)"/><path class="cls-3" d="M426,609.5c.4-8.2.5-65.1.1-126.2l-.6-111.3h51.7c41.8,0,51.6-.2,51.6-1.3a42.39,42.39,0,0,0-2.1-7.5l-2.1-6.2h-62.4c-34.3,0-62.4.3-62.4.8s1.4,6.3,3,13l3,12.3V598.9l-3,11.7c-1.7,6.5-2.8,12.4-2.6,13.1.4,1.1,3.3,1.3,12.8,1.1l12.3-.3Z" transform="translate(0 0)"/><path class="cls-3" d="M240.34,428.3c29.6-30.2,57.6-58.5,62.3-63l8.6-8.3H277l-1,2.8c-.6,1.5-2,5.6-3.2,9.2-2,6.5-2.2,6.7-33.3,37.8L208.24,438l.3-28.8c.3-26.6.5-29.4,2.8-38.7,1.3-5.5,2.6-10.8,2.8-11.7.4-1.7-.8-1.8-14.5-1.8h-14.9v63c0,34.7.4,63,.9,63S210.74,458.4,240.34,428.3Z" transform="translate(0 0)"/><path class="cls-3" d="M498,804l-2.9-5.2c-1.63-2.9-3.43-6.2-4-7.3-1-1.7-8.9-22.2-10.6-27.6-.4-1.1,2-4.1,6.9-9l7.4-7.3V722.8l-7.7-7.9-7.6-7.9h-58l.9,4.3c1.1,5.4,1.1,82.8,0,88.5l-.9,4.2h13.2c12.1,0,13.2-.1,12.7-1.7-2.1-7.2-2.7-12.4-2.4-23.3l.3-12.5,5.5-.3c3.4-.2,6.1.2,7.1,1s4.2,9.3,7.3,19.1l5.7,17.7Zm-31.23-56.5c-3.8,2-20.8,2.1-21.6.2a127.09,127.09,0,0,1-.2-12.8l.3-11.4,8.2-.3c9.6-.3,15.2,1.8,17.8,6.8C474.44,736.2,472.34,744.6,466.74,747.5Z" transform="translate(0 0)"/><path class="cls-3" d="M429.74,544.8c0,43.4.3,79.2.7,79.5s7.1.7,15,.7c13.1,0,14.3-.1,14.3-1.8,0-1-1.6-8.2-3.5-16.1l-3.5-14.2V538.6c0-40.8.3-54.5,1.2-55.4s5.5-1.2,14.7-1.2c12.7,0,14.3.2,24.6,3.5,6.1,1.9,11.3,3.5,11.8,3.5s.7-5.2.7-11.5V466h-76Z" transform="translate(0 0)"/><path class="cls-3" d="M326.34,357h-9.1L285,389.3c-24.1,24.2-32.2,32.9-32.2,34.6,0,2.2,13,44.8,15.1,49.6,1,2.2,4.8,13.3,8.1,23.5,1.2,3.6,4.6,14.2,7.6,23.5s5.8,17.7,6.3,18.7,2.7,7.4,4.9,14.5,4.7,14.7,5.6,17.1L302,575h15.4c8.5,0,15.4-.4,15.4-.8s-3.7-7.1-8.3-14.8a144,144,0,0,1-13.4-28.4c-9.4-26.4-17.3-48.3-25.3-69.5-4.3-11.5-9-24.4-10.4-28.5l-2.6-7.5,32.6-32.7C342.64,355.3,341.74,357,326.34,357Z" transform="translate(0 0)"/><path class="cls-3" d="M422.34,258.3l-.9,4.7H434c6.9,0,12.8-.3,13-.7s-.2-3.2-.9-6.2c-1-3.7-1.4-9.6-1.2-18l.3-12.6,4.9-.3c7.1-.5,9.3.3,10,3.5,1.5,6.1,9.9,31.9,10.9,33.1.7.8,4.7,1.2,13.8,1.2,7.1,0,12.9-.3,12.9-.6a56.78,56.78,0,0,0-3.6-6.7c-3.1-5.2-8.2-17.3-13.1-31.1l-1.4-4,7.5-7.2,7.6-7.2V181.5l-8.2-8.2-8.3-8.3h-56.8l.9,4.3C423.44,174.9,423.44,252.2,422.34,258.3Zm23-75.7c1-2.5,14.8-2.2,19.8.4,9.7,4.9,10.2,18.9.8,23.4-3.3,1.6-19.1,2.3-20.5.9C444.54,206.5,444.54,184.7,445.34,182.6Z" transform="translate(0 0)"/><path class="cls-3" d="M283.24,532.5c-2.6-8.6-8.8-27.3-10.2-30.5a25,25,0,0,1-1-3.5,6.37,6.37,0,0,0-1.3-2.9,2.37,2.37,0,0,1-.3-2.2c.3-.8.1-1.4-.5-1.4s-1.2-1.5-1.5-3.2-2.8-10.3-5.7-18.8-5.6-17.1-6.2-19c-2.4-7.8-8.2-23-8.9-23-1.1,0-61.3,60.9-62.1,62.8-.9,2.2-1,82.6-.1,83.5s28.1.9,28.6,0c.3-.5-.8-5.7-2.4-11.8-2.8-10.9-2.8-11.3-2.9-42.3,0-26.7.2-31.7,1.6-34.4,2.5-4.8,21.3-22.8,23.8-22.8,2,0,3.5,3.8,16.4,42.8,13.6,41.1,14.1,43.2,15.4,55.7l1.3,13,14.8.3c8.1.1,14.7,0,14.7-.4,0-1-9.2-29.7-10-31.3A91.94,91.94,0,0,1,283.24,532.5Z" transform="translate(0 0)"/><path class="cls-3" d="M155.74,358.3c0,.6,1.2,5.7,2.7,11.2l2.7,10V466l.1,86.5-2.7,9.5c-4.1,14.2-4.9,13.1,9.5,12.8l12.2-.3.3-108.7.2-108.8h-12.5C159,357,155.74,357.3,155.74,358.3Z" transform="translate(0 0)"/><path class="cls-3" d="M659.74,379V575h14.5c10.9,0,14.5-.3,14.5-1.2,0-.7-2-7.1-4.5-14.2l-4.5-12.9v-73c0-66.6.1-73.2,1.7-74.9,1.4-1.6,3.3-1.8,15.4-1.8h13.8l16.1,5.6c8.9,3.1,16.4,5.3,16.7,5s-.6-3.6-2-7.3-3.6-9.9-4.9-13.8l-2.3-7-37.2-.3Z" transform="translate(0 0)"/><path class="cls-2" d="M890.84,265c-14.8-44.1-54.7-88.9-96.6-108.5-3.3-1.5-8.2-3.9-11-5.2s-12.9-6-22.5-10.3-22-9.9-27.5-12.5-12.2-5.6-14.9-6.6-11-4.8-18.5-8.4-20.3-9.4-28.6-13-24-10.8-35-15.7c-46.3-20.9-61-27.5-79.5-35.8-18.8-8.4-31.4-14.1-84-37.9C459.24,5,447.54,0,446.54,0a5.1,5.1,0,0,0-3,1.3,21.67,21.67,0,0,1-5.3,2.9c-8.5,3.5-32.4,14.1-40,17.8-4.4,2.1-14.1,6.5-21.5,9.8s-24.1,10.8-37,16.7-29.6,13.4-37,16.7-19.6,8.8-27,12.3S259.44,85,256,86.4s-9.1,4.1-12.5,5.7-14.1,6.6-23.7,10.9-20.9,9.3-25,11.3-22.1,10.1-40,18.2c-69.9,31.6-80.1,37.7-103.7,61.7-29.5,30-46.3,62-50.3,95.6-.7,5.8-.9,71.9-.7,200.2.3,175,.5,192.1,2,198.9,7.2,32.1,23.8,60.5,51.1,87.6,17.8,17.7,35,29.2,61.1,40.9,7.2,3.3,16.4,7.5,20.5,9.4s14.9,6.8,24,10.9c28.5,12.9,54.7,24.8,79,35.8,12.9,5.9,31.4,14.2,41,18.5,16.8,7.5,32.7,14.7,82,37,12.4,5.6,29.9,13.5,39,17.4s18.5,8.3,21,9.6c7.4,3.9,26.4,11.8,28.3,11.9h0c.91.1,8.41-2.9,16.5-6.5s21.2-9.5,29.2-13.1,19-8.6,24.5-11.3,15.2-7.1,21.5-9.8,22.5-10,36-16.2,30.4-13.8,37.5-17,17.1-7.7,22-10,14.4-6.6,21-9.5,16.1-7.2,21-9.5,14.4-6.6,21-9.5,15.8-7.1,20.5-9.3c8.7-4.1,30.6-14.1,57.9-26.3,42.4-19,69.1-40.7,92.6-75.4,7.6-11.1,18-32.2,21.3-43,4.35-14.26,5.07-11.58,5.18-118.54V395.4C896.66,276.35,896,280.37,890.84,265ZM743.44,407.6c-.3.3-7.8-1.9-16.7-5l-16.1-5.6h-13.8c-12.1,0-14,.2-15.4,1.8-1.6,1.7-1.7,8.3-1.7,74.9v73l4.5,12.9c2.5,7.1,4.5,13.5,4.5,14.2,0,.9-3.6,1.2-14.5,1.2h-14.5V379l37.3.2,37.2.3,2.3,7c1.3,3.9,3.5,10.1,4.9,13.8S743.74,407.3,743.44,407.6ZM623.74,574.3c0-.5,2-6.9,4.5-14.3l4.5-13.5V473.6c0-66.8-.1-73-1.6-74.7s-3.3-1.9-15-1.9h-13.3l-17.1,6c-9.5,3.2-17.1,5.4-16.8,4.7s2.5-7.4,4.9-14.9l4.4-13.8h77.5l-.2,97.8-.3,97.7-15.7.3C630.84,574.9,623.74,574.8,623.74,574.3ZM583.24,365l2.6-8,70.6.2,70.6.3,2.4,6.9a72.35,72.35,0,0,1,2.3,8.3c0,1.1-14.1,1.3-75.5,1.3-41.5,0-75.5-.1-75.5-.4S581.84,369.5,583.24,365ZM457.84,767.2c-1-.8-3.7-1.2-7.1-1l-5.5.3-.3,12.5c-.3,10.9.3,16.1,2.4,23.3.5,1.6-.6,1.7-12.7,1.7h-13.2l.9-4.2c1.1-5.7,1.1-83.1,0-88.5l-.9-4.3h58l7.6,7.9,7.7,7.9v24.8l-7.4,7.3c-4.9,4.9-7.3,7.9-6.9,9,1.7,5.4,9.6,25.9,10.6,27.6.6,1.1,2.4,4.4,4,7.3L498,804H470.84l-5.7-17.7C462,776.5,458.84,768,457.84,767.2Zm28.7-593.9,8.2,8.2v24.7l-7.6,7.2-7.5,7.2,1.4,4c4.9,13.8,10,25.9,13.1,31.1a56.78,56.78,0,0,1,3.6,6.7c0,.3-5.8.6-12.9.6-9.1,0-13.1-.4-13.8-1.2-1-1.2-9.4-27-10.9-33.1-.7-3.2-2.9-4-10-3.5l-4.9.3-.3,12.6c-.2,8.4.2,14.3,1.2,18,.7,3,1.1,5.8.9,6.2s-6.1.7-13,.7h-12.6l.9-4.7c1.1-6.1,1.1-83.4,0-89l-.9-4.3h56.8Zm-30.3,433.8c1.9,7.9,3.5,15.1,3.5,16.1,0,1.7-1.2,1.8-14.3,1.8-7.9,0-14.6-.4-15-.7s-.7-36.1-.7-79.5V466h76v11.5c0,6.3-.2,11.5-.7,11.5s-5.7-1.6-11.8-3.5c-10.3-3.3-11.9-3.5-24.6-3.5-9.2,0-13.8.3-14.7,1.2s-1.2,14.6-1.2,55.4v54.3Zm-1.7-164.8c1.5,1.4,4.1,1.7,14.3,1.7,11.9,0,13-.2,24.4-4,6.5-2.2,12-4,12.2-4s.2,5.7.1,12.8l-.3,12.7-37.1.3c-20.4.1-37.3-.2-37.7-.5s-.7-19.7-.7-43V376h100.8l1.6,4.3c2.9,7.9,7.4,22.2,7,22.6-.1.1-6.6-1.8-14.3-4.3l-14-4.6h-27.4c-25.3,0-27.5.2-29,1.8s-1.7,4.8-1.7,23.4C452.74,438.7,453,440.9,454.54,442.3Zm7.63-85.3h62.4l2.1,6.2a42.39,42.39,0,0,1,2.1,7.5c0,1.1-9.8,1.3-51.6,1.3h-51.7l.6,111.3c.4,61.1.3,118-.1,126.2l-.7,15-12.3.3c-9.5.2-12.4,0-12.8-1.1-.2-.7.9-6.6,2.6-13.1l3-11.7V383.1l-3-12.3c-1.6-6.7-3-12.5-3-13S427.87,357,462.17,357Zm-186.8,76c1.4,4.1,6.1,17,10.4,28.5,8,21.2,15.9,43.1,25.3,69.5a144,144,0,0,0,13.4,28.4c4.6,7.7,8.3,14.4,8.3,14.8s-6.9.8-15.4.8H302l-1.6-4.2c-.9-2.4-3.4-10-5.6-17.1s-4.4-13.5-4.9-14.5-3.3-9.4-6.3-18.7-6.4-19.9-7.6-23.5c-3.3-10.2-7.1-21.3-8.1-23.5-2.1-4.8-15.1-47.4-15.1-49.6,0-1.7,8.1-10.4,32.2-34.6L317.24,357h9.1c15.4,0,16.3-1.7-21,35.8l-32.6,32.7Zm-9.43,128.5c-1.3-12.5-1.8-14.6-15.4-55.7-12.9-39-14.4-42.8-16.4-42.8-2.5,0-21.3,18-23.8,22.8-1.4,2.7-1.6,7.7-1.6,34.4.1,31,.1,31.4,2.9,42.3,1.6,6.1,2.7,11.3,2.4,11.8-.5.9-27.7.9-28.6,0s-.8-81.3.1-83.5c.8-1.9,61-62.8,62.1-62.8.7,0,6.5,15.2,8.9,23,.6,1.9,3.3,10.5,6.2,19s5.4,17.1,5.7,18.8.9,3.2,1.5,3.2.8.6.5,1.4a2.37,2.37,0,0,0,.3,2.2,6.37,6.37,0,0,1,1.3,2.9,25,25,0,0,0,1,3.5c1.4,3.2,7.6,21.9,10.2,30.5a91.94,91.94,0,0,0,3.5,10.6c.8,1.6,10,30.3,10,31.3,0,.4-6.6.5-14.7.4l-14.8-.3Zm-107.4.5,2.7-9.5-.1-86.5V379.5l-2.7-10c-1.5-5.5-2.7-10.6-2.7-11.2,0-1,3.23-1.3,12.5-1.3h12.5l-.2,108.8-.3,108.7-12.2.3C153.64,575.1,154.44,576.2,158.54,562Zm55.6-203.2c-.2.9-1.5,6.2-2.8,11.7-2.3,9.3-2.5,12.1-2.8,38.7l-.3,28.8,31.23-31.2c31.1-31.1,31.3-31.3,33.3-37.8,1.2-3.6,2.6-7.7,3.2-9.2l1-2.8h34.27l-8.6,8.3c-4.7,4.5-32.7,32.8-62.3,63s-54.2,54.7-54.7,54.7-.9-28.3-.9-63V357h14.9C213.34,357,214.54,357.1,214.14,358.8Z" transform="translate(0 0)"/><path class="cls-3" d="M585.74,403l17.1-6h13.3c11.7,0,13.5.2,15,1.9s1.6,7.9,1.6,74.7v72.9l-4.5,13.5c-2.5,7.4-4.5,13.8-4.5,14.3s7.1.6,15.8.5l15.7-.3.3-97.7.2-97.8h-77.5l-4.4,13.8c-2.4,7.5-4.6,14.2-4.9,14.9S576.24,406.2,585.74,403Z" transform="translate(0 0)"/><path class="cls-3" d="M429.74,418.3c0,23.3.3,42.7.7,43s17.3.6,37.7.5l37.1-.3.3-12.7c.1-7.1.1-12.8-.1-12.8s-5.7,1.8-12.2,4c-11.4,3.8-12.5,4-24.4,4-10.2,0-12.8-.3-14.3-1.7s-1.8-3.6-1.8-23.1c0-18.6.2-21.8,1.7-23.4s3.7-1.8,29-1.8h27.4l14,4.6c7.7,2.5,14.2,4.4,14.3,4.3.4-.4-4.1-14.7-7-22.6l-1.6-4.3H429.74Z" transform="translate(0 0)"/><path class="cls-3" d="M731.74,372.7a72.35,72.35,0,0,0-2.3-8.3l-2.4-6.9-70.6-.3-70.6-.2-2.6,8c-1.4,4.5-2.5,8.3-2.5,8.6s34,.4,75.5.4C717.64,374,731.74,373.8,731.74,372.7Z" transform="translate(0 0)"/></svg>